<svg width="57" height="50" viewBox="0 0 57 50" fill="none" xmlns="http://www.w3.org/2000/svg">
<g clip-path="url(#clip0)">
<path d="M22.58 23.1641C25.675 21.6797 27.2906 19.4336 27.2906 15.9375C27.2906 9.04297 22.1712 7.36328 16.2634 7.36328H0V41.9727H16.7209C22.9887 41.9727 28.8771 38.9551 28.8771 31.9238C28.8771 27.5781 26.8234 24.3652 22.58 23.1641ZM7.58181 13.2715H14.6964C17.4313 13.2715 19.8937 14.043 19.8937 17.2266C19.8937 20.166 17.9764 21.3477 15.2707 21.3477H7.58181V13.2715ZM15.6892 36.0938H7.58181V26.5625H15.8449C19.1832 26.5625 21.2952 27.959 21.2952 31.5039C21.2952 35 18.7745 36.0938 15.6892 36.0938ZM50.5811 12.5879H36.5951V9.17969H50.5811V12.5879ZM56.0606 29.8047C56.0606 22.3926 51.7393 16.2109 43.9044 16.2109C36.2934 16.2109 31.1253 21.9531 31.1253 29.4727C31.1253 37.2754 36.0209 42.627 43.9044 42.627C49.8706 42.627 53.7345 39.9316 55.5934 34.1992H49.5397C48.8876 36.3379 46.2013 37.4707 44.1185 37.4707C40.0989 37.4707 37.9869 35.1074 37.9869 31.0938H56.0022C56.0314 30.6836 56.0606 30.2441 56.0606 29.8047ZM37.9966 26.7578C38.2205 23.4668 40.4006 21.4062 43.6903 21.4062C47.1357 21.4062 48.8681 23.4375 49.1601 26.7578H37.9966Z" fill="#EF4136"/>
</g>
<defs>
<clipPath id="clip0">
<rect width="56.0606" height="50" fill="white"/>
</clipPath>
</defs>
</svg>
