<svg width="50" height="58" viewBox="0 0 50 58" fill="none" xmlns="http://www.w3.org/2000/svg">
<g clip-path="url(#clip0)">
<path d="M25.0112 15.7366C17.9129 15.7366 12.1875 21.462 12.1875 28.5602C12.1875 35.6585 17.9129 41.3839 25.0112 41.3839C32.1094 41.3839 37.8348 35.6585 37.8348 28.5602C37.8348 21.462 32.1094 15.7366 25.0112 15.7366ZM25.0112 36.8973C20.4241 36.8973 16.6741 33.1585 16.6741 28.5602C16.6741 23.962 20.4129 20.2232 25.0112 20.2232C29.6094 20.2232 33.3482 23.962 33.3482 28.5602C33.3482 33.1585 29.5982 36.8973 25.0112 36.8973ZM41.3504 15.212C41.3504 16.875 40.0111 18.2031 38.3594 18.2031C36.6964 18.2031 35.3683 16.8638 35.3683 15.212C35.3683 13.5603 36.7076 12.221 38.3594 12.221C40.0111 12.221 41.3504 13.5603 41.3504 15.212ZM49.8437 18.2478C49.654 14.2411 48.7388 10.6919 45.8036 7.76784C42.8794 4.84373 39.3303 3.92855 35.3237 3.72766C31.1942 3.49329 18.817 3.49329 14.6875 3.72766C10.692 3.91739 7.14286 4.83257 4.2076 7.75668C1.27233 10.6808 0.368312 14.2299 0.167419 18.2366C-0.0669555 22.3661 -0.0669555 34.7433 0.167419 38.8727C0.357151 42.8794 1.27233 46.4286 4.2076 49.3527C7.14286 52.2768 10.6808 53.1919 14.6875 53.3928C18.817 53.6272 31.1942 53.6272 35.3237 53.3928C39.3303 53.2031 42.8794 52.2879 45.8036 49.3527C48.7277 46.4286 49.6428 42.8794 49.8437 38.8727C50.0781 34.7433 50.0781 22.3772 49.8437 18.2478ZM44.5089 43.3036C43.6384 45.4911 41.9531 47.1763 39.7545 48.058C36.462 49.3638 28.6495 49.0625 25.0112 49.0625C21.3728 49.0625 13.5491 49.3527 10.2679 48.058C8.08036 47.1875 6.39509 45.5022 5.5134 43.3036C4.2076 40.0111 4.50893 32.1986 4.50893 28.5602C4.50893 24.9219 4.21876 17.0982 5.5134 13.8169C6.38393 11.6294 8.0692 9.94418 10.2679 9.06248C13.5603 7.75668 21.3728 8.05802 25.0112 8.05802C28.6495 8.05802 36.4732 7.76784 39.7545 9.06248C41.942 9.93302 43.6272 11.6183 44.5089 13.8169C45.8147 17.1094 45.5134 24.9219 45.5134 28.5602C45.5134 32.1986 45.8147 40.0223 44.5089 43.3036Z" fill="#EF4136"/>
</g>
<defs>
<clipPath id="clip0">
<rect width="50" height="57.1429" fill="white"/>
</clipPath>
</defs>
</svg>
