<svg width="55" height="65" viewBox="0 0 55 65" fill="none" xmlns="http://www.w3.org/2000/svg">
<path d="M27.5368 34.6582L10.8404 51.9238C9.68639 53.1172 7.82032 53.1172 6.67858 51.9238L3.90403 49.0547C2.75001 47.8613 2.75001 45.9316 3.90403 44.751L15.7388 32.5127L3.90403 20.2744C2.75001 19.0811 2.75001 17.1514 3.90403 15.9707L6.6663 13.0762C7.82032 11.8828 9.68639 11.8828 10.8281 13.0762L27.5246 30.3418C28.6909 31.5352 28.6909 33.4648 27.5368 34.6582ZM51.1083 30.3418L34.4118 13.0762C33.2578 11.8828 31.3917 11.8828 30.25 13.0762L27.4755 15.9453C26.3214 17.1387 26.3214 19.0684 27.4755 20.249L39.3103 32.4873L27.4755 44.7256C26.3214 45.9189 26.3214 47.8486 27.4755 49.0293L30.25 51.8984C31.404 53.0918 33.2701 53.0918 34.4118 51.8984L51.1083 34.6328C52.2623 33.4648 52.2623 31.5352 51.1083 30.3418Z" fill="white"/>
</svg>
