<svg width="30" height="55" viewBox="0 0 30 55" fill="none" xmlns="http://www.w3.org/2000/svg">
<path d="M21.7926 25.0723L10.5426 21.6777C9.24049 21.291 8.33424 20.0342 8.33424 18.6377C8.33424 16.8867 9.70924 15.4688 11.4072 15.4688H18.3134C19.5842 15.4688 20.8342 15.8662 21.8759 16.5967C22.5113 17.0371 23.3655 16.9297 23.9072 16.3818L27.5322 12.7295C28.2717 11.9883 28.1676 10.7529 27.3447 10.0977C24.7926 8.03516 21.6051 6.88574 18.3342 6.875V1.71875C18.3342 0.773437 17.5842 0 16.6676 0H13.3342C12.4176 0 11.6676 0.773437 11.6676 1.71875V6.875H11.4072C4.77174 6.875 -0.561595 12.751 0.0529881 19.7227C0.490488 24.6748 4.15715 28.7031 8.78215 30.0996L19.4592 33.3223C20.7613 33.7197 21.6676 34.9658 21.6676 36.3623C21.6676 38.1133 20.2926 39.5312 18.5947 39.5312H11.6884C10.4176 39.5312 9.16757 39.1338 8.1259 38.4033C7.49049 37.9629 6.63632 38.0703 6.09465 38.6182L2.46965 42.2705C1.73007 43.0117 1.83424 44.2471 2.65715 44.9023C5.20924 46.9648 8.39674 48.1143 11.6676 48.125V53.2812C11.6676 54.2266 12.4176 55 13.3342 55H16.6676C17.5842 55 18.3342 54.2266 18.3342 53.2812V48.1035C23.1884 48.0068 27.7405 45.0313 29.3447 40.2939C31.5842 33.6768 27.8238 26.8877 21.7926 25.0723V25.0723Z" fill="white"/>
</svg>
